<?xml version="1.0" encoding="UTF-8"?>
<!DOCTYPE svg PUBLIC "-//W3C//DTD SVG 1.1//EN" "http://www.w3.org/Graphics/SVG/1.1/DTD/svg11.dtd">
<!-- Creator: CorelDRAW X8 -->
<svg xmlns="http://www.w3.org/2000/svg" xml:space="preserve" width="1236px" height="279px" version="1.1" style="shape-rendering:geometricPrecision; text-rendering:geometricPrecision; image-rendering:optimizeQuality; fill-rule:evenodd; clip-rule:evenodd"
viewBox="0 0 1236 279"
 xmlns:xlink="http://www.w3.org/1999/xlink">
 <defs>
  <style type="text/css">
   <![CDATA[
    .str0 {stroke:#2B2A29;stroke-width:0.900002}
    .fil2 {fill:none}
    .fil1 {fill:#2B2A29}
    .fil0 {fill:url(#id0)}
   ]]>
  </style>
  <linearGradient id="id0" gradientUnits="userSpaceOnUse" x1="-228.446" y1="136.134" x2="1153.99" y2="129.668">
   <stop offset="0" style="stop-opacity:1; stop-color:#F08143"/>
   <stop offset="0.2" style="stop-opacity:1; stop-color:#F7BFA0"/>
   <stop offset="1" style="stop-opacity:1; stop-color:#FEFEFE"/>
  </linearGradient>
 </defs>
 <g id="Layer_x0020_1">
  <metadata id="CorelCorpID_0Corel-Layer"/>
  <g id="_379290648">
   <path class="fil0" d="M587 14c358,-35 648,16 648,112 0,34 -36,69 -99,102 23,-19 36,-39 36,-59 0,-94 -282,-149 -630,-123 -231,17 -433,66 -542,125 102,-70 327,-132 587,-157z"/>
   <path class="fil1" d="M156 184l69 0 0 -38 -69 0 0 38zm128 -67l34 0 0 95 -34 0 0 -95zm93 67l70 0 0 -38 -70 0 0 38zm130 -67l33 0 0 95 -33 0 0 -95zm59 -62l33 0 0 157 -33 0 0 -157zm156 120c-10,2 -43,2 -48,9l48 0 0 -9zm-67 -57l74 0c18,0 33,14 33,31l0 1 0 30 0 32 -33 0 0 0 -74 0c-18,0 -32,-14 -32,-32 1,-9 10,-16 34,-19 23,-3 57,-6 65,-8l0 -9 -65 0 0 6 -35 0 0 -1c0,-17 15,-31 33,-31zm285 0l33 0 0 0c1,0 3,0 4,0l86 0c21,0 38,14 38,31l0 1 0 30 0 32 -34 0 0 0c0,0 -1,0 -1,0l0 -68 -29 0 0 68 -33 0 0 -68 -29 0 0 68c-1,0 -2,0 -2,0l0 0 -33 0 0 -32 0 -31 0 -31zm-121 0l1 0 74 0c18,0 32,14 32,31l0 16 -35 0 0 -21 -70 0 0 68 -1 0 -1 0 -32 0 0 -29c0,-1 0,-2 0,-3l0 -31c0,0 0,-1 0,-2l0 -29 32 0zm-295 -50c8,0 15,7 15,14 0,8 -7,14 -15,14 -9,0 -16,-6 -16,-14 0,-7 7,-14 16,-14zm-43 142l0 7 0 24c0,17 -14,32 -32,32l-75 0c-17,0 -32,-15 -32,-32l0 -14 35 0 0 18 70 0 0 -33 -73 0c-17,0 -32,-14 -32,-32l0 -31c0,-17 15,-31 32,-31l74 0 1 0 32 0 0 31 0 31 0 30zm-180 -142c9,0 16,7 16,14 0,8 -7,14 -16,14 -9,0 -16,-6 -16,-14 0,-7 7,-14 16,-14zm-148 50l74 0 0 -63 33 0 0 94 0 31 0 32 -32 0 -1 0 -74 0c-18,0 -32,-14 -32,-32l0 -31c0,-17 14,-31 32,-31z"/>
   <path class="fil2 str0" d="M156 184l69 0 0 -38 -69 0 0 38zm128 -67l34 0 0 95 -34 0 0 -95zm93 67l70 0 0 -38 -70 0 0 38zm130 -67l33 0 0 95 -33 0 0 -95zm59 -62l33 0 0 157 -33 0 0 -157zm156 120c-10,2 -43,2 -48,9l48 0 0 -9zm-67 -57l74 0c18,0 33,14 33,31l0 1 0 30 0 32 -33 0 0 0 -74 0c-18,0 -32,-14 -32,-32 1,-9 10,-16 34,-19 23,-3 57,-6 65,-8l0 -9 -65 0 0 6 -35 0 0 -1c0,-17 15,-31 33,-31zm285 0l33 0 0 0c1,0 3,0 4,0l86 0c21,0 38,14 38,31l0 1 0 30 0 32 -34 0 0 0c0,0 -1,0 -1,0l0 -68 -29 0 0 68 -33 0 0 -68 -29 0 0 68c-1,0 -2,0 -2,0l0 0 -33 0 0 -32 0 -31 0 -31zm-121 0l1 0 74 0c18,0 32,14 32,31l0 16 -35 0 0 -21 -70 0 0 68 -1 0 -1 0 -32 0 0 -29c0,-1 0,-2 0,-3l0 -31c0,0 0,-1 0,-2l0 -29 32 0zm-295 -50c8,0 15,7 15,14 0,8 -7,14 -15,14 -9,0 -16,-6 -16,-14 0,-7 7,-14 16,-14zm-43 142l0 7 0 24c0,17 -14,32 -32,32l-75 0c-17,0 -32,-15 -32,-32l0 -14 35 0 0 18 70 0 0 -33 -73 0c-17,0 -32,-14 -32,-32l0 -31c0,-17 15,-31 32,-31l74 0 1 0 32 0 0 31 0 31 0 30zm-180 -142c9,0 16,7 16,14 0,8 -7,14 -16,14 -9,0 -16,-6 -16,-14 0,-7 7,-14 16,-14zm-148 50l74 0 0 -63 33 0 0 94 0 31 0 32 -32 0 -1 0 -74 0c-18,0 -32,-14 -32,-32l0 -31c0,-17 14,-31 32,-31z"/>
  </g>
 </g>
</svg>
